HIERARCHY
ROOT Hips
{
	OFFSET 56.994900 -9.107426 92.817200
	CHANNELS 6 Xposition Yposition Zposition Xrotation Yrotation Zrotation
	JOINT spine
	{
		OFFSET 0.000000 -0.448574 7.800591
		CHANNELS 3 Xrotation Yrotation Zrotation
		JOINT spine1
		{
			OFFSET 0.000000 -0.000002 10.136398
			CHANNELS 3 Xrotation Yrotation Zrotation
			JOINT spine2
			{
				OFFSET 0.000000 -0.000002 9.712509
				CHANNELS 3 Xrotation Yrotation Zrotation
				JOINT Neck
				{
					OFFSET 0.000000 -1.188874 24.936104
					CHANNELS 3 Xrotation Yrotation Zrotation
					JOINT Head
					{
						OFFSET 0.000000 -0.000001 7.533844
						CHANNELS 3 Xrotation Yrotation Zrotation
						End Site
						{
							OFFSET 0.000000 6.014017 18.236099
						}
					}
				}
				JOINT RightShoulder
				{
					OFFSET -4.089649 0.569456 10.488808
					CHANNELS 3 Xrotation Yrotation Zrotation
					JOINT RightArm
					{
						OFFSET 0.000000 -0.000003 13.757004
						CHANNELS 3 Xrotation Yrotation Zrotation
						JOINT RightArmRoll
						{
							OFFSET 0.000000 -0.000001 6.944778
							CHANNELS 3 Xrotation Yrotation Zrotation
							JOINT RightForeArm
							{
								OFFSET 0.000000 -0.000003 20.227692
								CHANNELS 3 Xrotation Yrotation Zrotation
								JOINT RightForeArmRoll
								{
									OFFSET 0.000000 -0.000002 7.793121
									CHANNELS 3 Xrotation Yrotation Zrotation
									JOINT RightHand
									{
										OFFSET 0.000000 -0.000002 15.639099
										CHANNELS 3 Xrotation Yrotation Zrotation
										End Site
										{
											OFFSET 0.000000 0.000000 0.100006
										}
									}
								}
							}
						}
					}
				}
				JOINT LeftShoulder
				{
					OFFSET 4.089649 0.569456 10.488808
					CHANNELS 3 Xrotation Yrotation Zrotation
					JOINT LeftArm
					{
						OFFSET 0.000000 -0.000003 13.757004
						CHANNELS 3 Xrotation Yrotation Zrotation
						JOINT LeftArmRoll
						{
							OFFSET 0.000000 -0.000001 6.944778
							CHANNELS 3 Xrotation Yrotation Zrotation
							JOINT LeftForeArm
							{
								OFFSET 0.000000 -0.000003 20.227692
								CHANNELS 3 Xrotation Yrotation Zrotation
								JOINT LeftForeArmRoll
								{
									OFFSET 0.000000 -0.000002 7.793121
									CHANNELS 3 Xrotation Yrotation Zrotation
									JOINT LeftHand
									{
										OFFSET 0.000000 -0.000002 15.639099
										CHANNELS 3 Xrotation Yrotation Zrotation
										End Site
										{
											OFFSET 0.000000 0.000000 0.100006
										}
									}
								}
							}
						}
					}
				}
			}
		}
	}
	JOINT RightUpLeg
	{
		OFFSET -6.914158 1.063580 -1.267883
		CHANNELS 3 Xrotation Yrotation Zrotation
		JOINT RightUpLegRoll
		{
			OFFSET 0.000000 -0.000003 18.337799
			CHANNELS 3 Xrotation Yrotation Zrotation
			JOINT RightLeg
			{
				OFFSET 0.000000 0.000004 -22.708496
				CHANNELS 3 Xrotation Yrotation Zrotation
				JOINT RightLegRoll
				{
					OFFSET 0.000000 -0.000004 22.782799
					CHANNELS 3 Xrotation Yrotation Zrotation
					JOINT RightFoot
					{
						OFFSET 0.000000 -0.000003 18.962898
						CHANNELS 3 Xrotation Yrotation Zrotation
						JOINT RightToeBase
						{
							OFFSET 0.000000 -0.000003 15.852005
							CHANNELS 3 Xrotation Yrotation Zrotation
							End Site
							{
								OFFSET 0.006718 0.884892 7.677017
							}
						}
					}
				}
			}
		}
	}
	JOINT LeftUpLeg
	{
		OFFSET 6.914158 1.063580 -1.267883
		CHANNELS 3 Xrotation Yrotation Zrotation
		JOINT LeftUpLegRoll
		{
			OFFSET 0.000000 -0.000003 18.337898
			CHANNELS 3 Xrotation Yrotation Zrotation
			JOINT LeftLeg
			{
				OFFSET 0.000000 -0.000004 22.708397
				CHANNELS 3 Xrotation Yrotation Zrotation
				JOINT LeftLegRoll
				{
					OFFSET 0.000000 -0.000004 22.993408
					CHANNELS 3 Xrotation Yrotation Zrotation
					JOINT LeftFoot
					{
						OFFSET 0.000000 -0.000003 18.752197
						CHANNELS 3 Xrotation Yrotation Zrotation
						JOINT LeftToeBase
						{
							OFFSET 0.000000 -0.000002 15.852005
							CHANNELS 3 Xrotation Yrotation Zrotation
							End Site
							{
								OFFSET -0.030113 0.884891 7.677017
							}
						}
					}
				}
			}
		}
	}
}
MOTION
Frames: 7
Frame Time: 0.041667
54.414608 -13.253016 90.992584 -7.811704 5.121803 -4.609445 1.606685 -0.795747 -0.523284 7.209050 -1.609184 -1.015822 8.854297 -1.622215 -0.996479 10.806664 -7.556617 1.910858 -12.407689 4.082713 2.403734 -21.346568 -75.973123 -24.965742 467.331761 -108.907435 423.847362 0.000000 -0.000000 0.000007 114.660954 13.626528 -32.238086 0.000006 -0.000005 -3.000001 -5.000269 -7.999449 0.000091 -5.174001 49.358017 5.183784 -420.578816 121.336726 432.894302 0.000000 -0.000009 -0.000004 111.387784 -2.043073 10.983863 0.000007 -0.000018 3.000020 -5.000297 7.999340 -0.000098 -15.353789 -183.914619 -2.805210 -179.999991 0.000005 -0.872005 160.731399 -1.587825 -1.065985 -0.000003 0.000001 0.196776 64.197870 6.535627 3.238127 25.456959 -7.355616 0.000002 4.917179 -183.269958 0.223425 -0.000005 -0.000004 -1.641190 -27.348629 7.736718 1.901102 -0.000006 0.000005 -0.767658 89.450111 -7.949322 5.972495 25.516559 7.355610 -0.015449 
54.438099 -13.246616 91.004601 -7.757293 5.151254 -4.805488 1.597532 -0.785907 -0.532309 7.190625 -1.589932 -1.034356 8.835866 -1.603008 -1.015238 10.915084 -8.281138 2.039360 -12.437288 4.749366 2.574430 -21.807855 -76.234262 -25.457640 468.499286 -109.380200 425.415300 0.000001 -0.000000 0.000007 115.012422 13.616314 -32.505782 0.000005 -0.000003 -3.000001 -5.000270 -7.999451 0.000096 -5.053458 48.905490 4.985907 -421.354507 121.890572 433.376596 0.000000 -0.000005 -0.000004 111.108941 -1.983561 10.729620 0.000008 -0.000023 3.000021 -5.000302 7.999340 -0.000098 -15.370837 -183.947089 -2.840655 -179.999991 0.000005 -0.868003 160.819399 -1.583011 -1.058572 -0.000003 0.000001 0.195453 64.210875 6.537268 3.235623 25.456957 -7.355617 0.000001 4.960616 -183.227911 0.220178 -0.000005 -0.000004 -1.648799 -27.213668 7.769823 1.897318 -0.000003 0.000006 -0.766043 89.407743 -7.968663 6.050149 25.516151 7.355618 -0.015428 
54.459202 -13.228416 91.008202 -7.703913 5.180048 -5.003409 1.589195 -0.776483 -0.541302 7.173895 -1.571517 -1.052785 8.819130 -1.584641 -1.033886 11.014414 -8.988274 2.167588 -12.461595 5.400116 2.742652 -22.264979 -76.481385 -25.943896 469.576598 -109.847098 426.895156 -0.000001 -0.000001 0.000009 115.355830 13.601372 -32.763390 0.000005 -0.000003 -2.999996 -5.000271 -7.999451 0.000090 -4.941837 48.453509 4.798446 -422.099052 122.450265 433.813236 -0.000000 -0.000008 -0.000003 110.812579 -1.924019 10.470369 0.000007 -0.000023 3.000021 -5.000298 7.999341 -0.000102 -15.387282 -183.978604 -2.876096 -179.999991 0.000005 -0.864000 160.906881 -1.578182 -1.052200 -0.000003 0.000001 0.194148 64.224132 6.539076 3.232740 25.456959 -7.355618 0.000002 5.005702 -183.183857 0.218661 -0.000005 -0.000004 -1.656550 -27.077320 7.802071 1.893146 -0.000005 0.000006 -0.764430 89.364583 -7.988034 6.127937 25.515854 7.355608 -0.015417 
54.483307 -13.229316 91.020996 -7.651634 5.207953 -5.203321 1.581674 -0.767685 -0.550194 7.158818 -1.554334 -1.070972 8.804040 -1.567510 -1.052285 11.105475 -9.673741 2.295465 -12.481813 6.031949 2.908117 -22.714552 -76.712163 -26.421207 470.574407 -110.308539 428.291629 0.000002 -0.000000 0.000009 115.691069 13.582440 -33.011021 0.000005 -0.000005 -2.999997 -5.000270 -7.999449 0.000089 -4.838121 48.004024 4.620529 -422.811714 123.015204 434.202666 0.000000 -0.000006 -0.000005 110.497591 -1.865847 10.204381 0.000009 -0.000024 3.000019 -5.000302 7.999335 -0.000105 -15.403330 -184.010132 -2.910858 -179.999991 0.000005 -0.859998 160.993460 -1.573335 -1.044856 -0.000003 0.000001 0.192877 64.237731 6.541073 3.229281 25.456962 -7.355613 0.000001 5.052441 -183.137808 0.219482 -0.000005 -0.000004 -1.664460 -26.939566 7.833136 1.888524 -0.000006 0.000006 -0.762837 89.320563 -8.007613 6.205840 25.515444 7.355613 -0.015396 
54.506306 -13.211819 91.030502 -7.600551 5.234683 -5.405289 1.574941 -0.759721 -0.558915 7.145371 -1.538801 -1.088778 8.790591 -1.552052 -1.070262 11.189261 -10.333212 2.422977 -12.499134 6.641785 3.070608 -23.152929 -76.924241 -26.885848 471.502712 -110.764905 429.609200 -0.000002 -0.000000 0.000008 116.017948 13.561349 -33.252028 0.000005 -0.000001 -2.999997 -5.000268 -7.999448 0.000095 -4.741362 47.559307 4.451416 -423.490689 123.585265 434.542045 -0.000001 -0.000005 -0.000006 110.163151 -1.809274 9.933705 0.000006 -0.000024 3.000018 -5.000301 7.999339 -0.000102 -15.418944 -184.039720 -2.945116 -179.999991 0.000005 -0.855995 161.078851 -1.568454 -1.037572 -0.000003 0.000001 0.191656 64.251904 6.543210 3.225319 25.456957 -7.355617 0.000002 5.100822 -183.087770 0.223420 -0.000005 -0.000004 -1.672581 -26.800470 7.862664 1.883411 -0.000004 0.000005 -0.761273 89.275634 -8.027390 6.283870 25.515042 7.355613 -0.015382 
54.533306 -13.195616 91.042503 -7.550742 5.259972 -5.609435 1.568965 -0.752796 -0.567390 7.133522 -1.525327 -1.106037 8.778729 -1.538650 -1.087689 11.266407 -10.962467 2.550119 -12.514805 7.226574 3.229958 -23.575757 -77.115308 -27.333527 472.369927 -111.217036 430.850163 -0.000001 0.000000 0.000007 116.336181 13.539370 -33.486683 0.000005 -0.000002 -3.000000 -5.000272 -7.999448 0.000095 -4.650599 47.121297 4.290333 -424.139530 124.158509 434.834896 0.000000 -0.000007 -0.000005 109.808227 -1.754828 9.656422 0.000005 -0.000023 3.000020 -5.000300 7.999337 -0.000102 -15.434544 -184.068353 -2.978173 -179.999991 0.000005 -0.852007 161.162616 -1.563562 -1.031334 -0.000003 0.000001 0.190500 64.266616 6.545530 3.220766 25.456957 -7.355618 0.000002 5.150869 -183.034740 0.230994 -0.000005 -0.000004 -1.680940 -26.660018 7.890328 1.877753 -0.000004 0.000005 -0.759758 89.229728 -8.047255 6.361814 25.514534 7.355615 -0.015355 
54.556404 -13.184718 91.047211 -7.502287 5.283562 -5.815831 1.563744 -0.747122 -0.575554 7.123222 -1.514318 -1.122622 8.768424 -1.527742 -1.104395 11.337823 -11.557144 2.676952 -12.530089 7.783248 3.386106 -23.978549 -77.283153 -27.759782 473.184304 -111.665977 432.016896 0.000000 0.000000 0.000006 116.645629 13.517830 -33.716235 0.000004 -0.000003 -2.999998 -5.000271 -7.999450 0.000093 -4.564881 46.692051 4.136531 -424.755148 124.735128 435.076630 0.000002 -0.000006 -0.000005 109.431959 -1.703393 9.375656 0.000002 -0.000020 3.000023 -5.000301 7.999339 -0.000102 -15.450214 -184.095045 -3.009910 -179.999991 0.000005 -0.848004 161.244306 -1.558641 -1.025183 -0.000003 0.000001 0.189425 64.282025 6.548099 3.215427 25.456962 -7.355617 0.000001 5.202572 -182.977735 0.242908 -0.000005 -0.000004 -1.689570 -26.518189 7.915792 1.871496 -0.000005 0.000005 -0.758303 89.182757 -8.067290 6.439871 25.514129 7.355614 -0.015340 
